<svg xmlns="http://www.w3.org/2000/svg" width="919" height="795" viewBox="0 0 919 795">
  <g id="组_44" data-name="组 44" transform="translate(-861 -237)">
    <g id="矩形_3" data-name="矩形 3" transform="translate(1001 237)" fill="#fff" stroke="#000" stroke-width="4">
      <rect width="779" height="795" rx="34" stroke="none"/>
      <rect x="2" y="2" width="775" height="791" rx="32" fill="none"/>
    </g>
    <line id="直线_4" data-name="直线 4" x2="643" transform="translate(1069.5 330)" fill="none" stroke="#000" stroke-width="1"/>
    <text id="August_2021" data-name="August 2021" transform="translate(1292 295)" font-size="36" font-family="Optima-Bold, Optima" font-weight="700"><tspan x="0" y="0">August 2021</tspan></text>
    <path id="Icon_material-keyboard-arrow-right" data-name="Icon material-keyboard-arrow-right" d="M12.885,36.98,25.148,24.69,12.885,12.4,16.66,8.625,32.725,24.69,16.66,40.755Z" transform="translate(1680.115 258.811)"/>
    <path id="Icon_material-keyboard-arrow-left" data-name="Icon material-keyboard-arrow-left" d="M31.84,36.6,19.577,24.315,31.84,12.025,28.065,8.25,12,24.315,28.065,40.379Z" transform="translate(1057.5 259.186)"/>
    <line id="直线_7" data-name="直线 7" y2="600" transform="translate(1160 368.435)" fill="none" stroke="#000" stroke-width="1"/>
    <line id="直线_8" data-name="直线 8" y2="600" transform="translate(1251 368.435)" fill="none" stroke="#000" stroke-width="1"/>
    <line id="直线_9" data-name="直线 9" y2="600" transform="translate(1342 368.435)" fill="none" stroke="#000" stroke-width="1"/>
    <line id="直线_10" data-name="直线 10" y2="600" transform="translate(1433 368.435)" fill="none" stroke="#000" stroke-width="1"/>
    <line id="直线_11" data-name="直线 11" y2="600" transform="translate(1524 368.435)" fill="none" stroke="#000" stroke-width="1"/>
    <line id="直线_12" data-name="直线 12" y2="600" transform="translate(1615 368.435)" fill="none" stroke="#000" stroke-width="1"/>
    <line id="直线_15" data-name="直线 15" x2="643" transform="translate(1069 489.369)" fill="none" stroke="#707070" stroke-width="1"/>
    <line id="直线_16" data-name="直线 16" x2="643" transform="translate(1069 609.369)" fill="none" stroke="#707070" stroke-width="1"/>
    <line id="直线_17" data-name="直线 17" x2="643" transform="translate(1069 729.369)" fill="none" stroke="#707070" stroke-width="1"/>
    <line id="直线_18" data-name="直线 18" x2="643" transform="translate(1069 849.369)" fill="none" stroke="#707070" stroke-width="1"/>
    <text id="_1" data-name="1" transform="translate(1103 438)" font-size="36" font-family="Optima-Bold, Optima" font-weight="700"><tspan x="0" y="0">1</tspan></text>
    <text id="_2" data-name="2" transform="translate(1195 438)" font-size="36" font-family="Optima-Bold, Optima" font-weight="700"><tspan x="0" y="0">2</tspan></text>
    <text id="_3" data-name="3" transform="translate(1287 438)" font-size="36" font-family="Optima-Bold, Optima" font-weight="700"><tspan x="0" y="0">3</tspan></text>
    <text id="_4" data-name="4" transform="translate(1379 438)" font-size="36" font-family="Optima-Bold, Optima" font-weight="700"><tspan x="0" y="0">4</tspan></text>
    <text id="_5" data-name="5" transform="translate(1471 438)" font-size="36" font-family="Optima-Bold, Optima" font-weight="700"><tspan x="0" y="0">5</tspan></text>
    <text id="_6" data-name="6" transform="translate(1563 438)" font-size="36" font-family="Optima-Bold, Optima" font-weight="700"><tspan x="0" y="0">6</tspan></text>
    <text id="_7" data-name="7" transform="translate(1655 438)" font-size="36" font-family="Optima-Bold, Optima" font-weight="700"><tspan x="0" y="0">7</tspan></text>
    <text id="_8" data-name="8" transform="translate(1103 564)" font-size="36" font-family="Optima-Bold, Optima" font-weight="700"><tspan x="0" y="0">8</tspan></text>
    <text id="_9" data-name="9" transform="translate(1195 564)" font-size="36" font-family="Optima-Bold, Optima" font-weight="700"><tspan x="0" y="0">9</tspan></text>
    <text id="_10" data-name="10" transform="translate(1277 564)" font-size="36" font-family="Optima-Bold, Optima" font-weight="700"><tspan x="0" y="0">10</tspan></text>
    <text id="_11" data-name="11" transform="translate(1369 564)" font-size="36" font-family="Optima-Bold, Optima" font-weight="700"><tspan x="0" y="0">11</tspan></text>
    <text id="_12" data-name="12" transform="translate(1461 564)" font-size="36" font-family="Optima-Bold, Optima" font-weight="700"><tspan x="0" y="0">12</tspan></text>
    <text id="_13" data-name="13" transform="translate(1553 564)" font-size="36" font-family="Optima-Bold, Optima" font-weight="700"><tspan x="0" y="0">13</tspan></text>
    <text id="_14" data-name="14" transform="translate(1645 564)" font-size="36" font-family="Optima-Bold, Optima" font-weight="700"><tspan x="0" y="0">14</tspan></text>
    <text id="_15" data-name="15" transform="translate(1093 680)" font-size="36" font-family="Optima-Bold, Optima" font-weight="700"><tspan x="0" y="0">15</tspan></text>
    <text id="_16" data-name="16" transform="translate(1185 680)" font-size="36" font-family="Optima-Bold, Optima" font-weight="700"><tspan x="0" y="0">16</tspan></text>
    <text id="_17" data-name="17" transform="translate(1277 680)" font-size="36" font-family="Optima-Bold, Optima" font-weight="700"><tspan x="0" y="0">17</tspan></text>
    <text id="_18" data-name="18" transform="translate(1369 680)" font-size="36" font-family="Optima-Bold, Optima" font-weight="700"><tspan x="0" y="0">18</tspan></text>
    <text id="_19" data-name="19" transform="translate(1461 680)" font-size="36" font-family="Optima-Bold, Optima" font-weight="700"><tspan x="0" y="0">19</tspan></text>
    <text id="_20" data-name="20" transform="translate(1553 680)" font-size="36" font-family="Optima-Bold, Optima" font-weight="700"><tspan x="0" y="0">20</tspan></text>
    <text id="_21" data-name="21" transform="translate(1645 680)" font-size="36" font-family="Optima-Bold, Optima" font-weight="700"><tspan x="0" y="0">21</tspan></text>
    <text id="_22" data-name="22" transform="translate(1093 802)" font-size="36" font-family="Optima-Bold, Optima" font-weight="700"><tspan x="0" y="0">22</tspan></text>
    <text id="_23" data-name="23" transform="translate(1185 802)" font-size="36" font-family="Optima-Bold, Optima" font-weight="700"><tspan x="0" y="0">23</tspan></text>
    <text id="_24" data-name="24" transform="translate(1277 802)" font-size="36" font-family="Optima-Bold, Optima" font-weight="700"><tspan x="0" y="0">24</tspan></text>
    <text id="_25" data-name="25" transform="translate(1369 802)" font-size="36" font-family="Optima-Bold, Optima" font-weight="700"><tspan x="0" y="0">25</tspan></text>
    <text id="_26" data-name="26" transform="translate(1461 802)" font-size="36" font-family="Optima-Bold, Optima" font-weight="700"><tspan x="0" y="0">26</tspan></text>
    <text id="_27" data-name="27" transform="translate(1553 802)" font-size="36" font-family="Optima-Bold, Optima" font-weight="700"><tspan x="0" y="0">27</tspan></text>
    <text id="_28" data-name="28" transform="translate(1645 802)" font-size="36" font-family="Optima-Bold, Optima" font-weight="700"><tspan x="0" y="0">28</tspan></text>
    <text id="_29" data-name="29" transform="translate(1093 920)" font-size="36" font-family="Optima-Bold, Optima" font-weight="700"><tspan x="0" y="0">29</tspan></text>
    <text id="_30" data-name="30" transform="translate(1185 920)" font-size="36" font-family="Optima-Bold, Optima" font-weight="700"><tspan x="0" y="0">30</tspan></text>
    <text id="_31" data-name="31" transform="translate(1277 920)" font-size="36" font-family="Optima-Bold, Optima" font-weight="700"><tspan x="0" y="0">31</tspan></text>
    <g id="Icon_feather-mouse-pointer" data-name="Icon feather-mouse-pointer" transform="translate(1141.045 517.772)">
      <path id="路径_6" data-name="路径 6" d="M4.5,4.5,15.1,29.955,18.87,18.87,29.955,15.1Z" fill="none" stroke="#000" stroke-linecap="round" stroke-linejoin="round" stroke-width="3"/>
      <path id="路径_7" data-name="路径 7" d="M19.5,19.5l9,9" fill="none" stroke="#000" stroke-linecap="round" stroke-linejoin="round" stroke-width="3"/>
    </g>
    <g id="组_3" data-name="组 3" transform="translate(124 -155.637)">
      <rect id="矩形_4" data-name="矩形 4" width="205" height="275" rx="46" transform="translate(737 572.637)"/>
      <path id="多边形_1" data-name="多边形 1" d="M21.5,0,43,42H0Z" transform="translate(979 687.637) rotate(90)"/>
    </g>
    <path id="Icon_awesome-heart" data-name="Icon awesome-heart" d="M32.505,4.4a9.615,9.615,0,0,0-13.12.956L18,6.785,16.615,5.358A9.615,9.615,0,0,0,3.495,4.4,10.1,10.1,0,0,0,2.8,19.02L16.4,33.068a2.2,2.2,0,0,0,3.185,0L33.195,19.02A10.09,10.09,0,0,0,32.505,4.4Z" transform="translate(1115 497.252)"/>
    <text id="Couple_Party_in_Unimelb" data-name="Couple 
Party in 
Unimelb" transform="translate(901 481)" fill="#fff" font-size="36" font-family="Optima-Bold, Optima" font-weight="700"><tspan x="0" y="0">Couple </tspan><tspan x="0" y="50">Party in </tspan><tspan x="0" y="100">Unimelb</tspan></text>
    <g id="矩形_6" data-name="矩形 6" transform="translate(897 608)" fill="#fff" stroke="#000" stroke-width="2">
      <rect width="126" height="54" rx="23" stroke="none"/>
      <rect x="1" y="1" width="124" height="52" rx="22" fill="none"/>
    </g>
    <text id="Join" transform="translate(939 641)" font-size="24" font-family="LucidaGrande, Lucida Grande"><tspan x="0" y="0">Join</tspan></text>
  </g>
</svg>
