<svg xmlns="http://www.w3.org/2000/svg" xmlns:xlink="http://www.w3.org/1999/xlink" width="1920" height="1305" viewBox="0 0 1920 1305">
  <defs>
    <clipPath id="clip-Sign_Up_2">
      <rect width="1920" height="1305"/>
    </clipPath>
  </defs>
  <g id="Sign_Up_2" data-name="Sign Up – 2" clip-path="url(#clip-Sign_Up_2)">
    <rect width="1920" height="1305" fill="#fff"/>
    <g id="组_19" data-name="组 19" transform="translate(-4056 -1012)">
      <circle id="椭圆_19" data-name="椭圆 19" cx="14.5" cy="14.5" r="14.5" transform="translate(3967 1403)" fill="#bbd2e6"/>
      <circle id="椭圆_20" data-name="椭圆 20" cx="14.5" cy="14.5" r="14.5" transform="translate(4059 1403)" fill="#bbd2e6"/>
      <circle id="椭圆_21" data-name="椭圆 21" cx="14.5" cy="14.5" r="14.5" transform="translate(4151 1403)" fill="#bbd2e6"/>
      <circle id="椭圆_22" data-name="椭圆 22" cx="14.5" cy="14.5" r="14.5" transform="translate(4243 1403)" fill="#bbd2e6"/>
      <circle id="椭圆_23" data-name="椭圆 23" cx="14.5" cy="14.5" r="14.5" transform="translate(4335 1403)" fill="#bbd2e6"/>
      <circle id="椭圆_24" data-name="椭圆 24" cx="14.5" cy="14.5" r="14.5" transform="translate(4427 1403)" fill="#bbd2e6"/>
      <circle id="椭圆_25" data-name="椭圆 25" cx="14.5" cy="14.5" r="14.5" transform="translate(3967 1468)" fill="#bbd2e6"/>
      <circle id="椭圆_26" data-name="椭圆 26" cx="14.5" cy="14.5" r="14.5" transform="translate(4059 1468)" fill="#bbd2e6"/>
      <circle id="椭圆_27" data-name="椭圆 27" cx="14.5" cy="14.5" r="14.5" transform="translate(4151 1468)" fill="#bbd2e6"/>
      <circle id="椭圆_28" data-name="椭圆 28" cx="14.5" cy="14.5" r="14.5" transform="translate(4243 1468)" fill="#bbd2e6"/>
      <circle id="椭圆_29" data-name="椭圆 29" cx="14.5" cy="14.5" r="14.5" transform="translate(4335 1468)" fill="#bbd2e6"/>
      <circle id="椭圆_30" data-name="椭圆 30" cx="14.5" cy="14.5" r="14.5" transform="translate(4427 1468)" fill="#bbd2e6"/>
      <circle id="椭圆_31" data-name="椭圆 31" cx="14.5" cy="14.5" r="14.5" transform="translate(3967 1533)" fill="#bbd2e6"/>
      <circle id="椭圆_32" data-name="椭圆 32" cx="14.5" cy="14.5" r="14.5" transform="translate(4059 1533)" fill="#bbd2e6"/>
      <circle id="椭圆_33" data-name="椭圆 33" cx="14.5" cy="14.5" r="14.5" transform="translate(4151 1533)" fill="#bbd2e6"/>
      <circle id="椭圆_34" data-name="椭圆 34" cx="14.5" cy="14.5" r="14.5" transform="translate(4243 1533)" fill="#bbd2e6"/>
      <circle id="椭圆_35" data-name="椭圆 35" cx="14.5" cy="14.5" r="14.5" transform="translate(4335 1533)" fill="#bbd2e6"/>
      <circle id="椭圆_36" data-name="椭圆 36" cx="14.5" cy="14.5" r="14.5" transform="translate(4427 1533)" fill="#bbd2e6"/>
      <circle id="椭圆_37" data-name="椭圆 37" cx="14.5" cy="14.5" r="14.5" transform="translate(3966 1598)" fill="#bbd2e6"/>
      <circle id="椭圆_38" data-name="椭圆 38" cx="14.5" cy="14.5" r="14.5" transform="translate(4058 1598)" fill="#bbd2e6"/>
      <circle id="椭圆_39" data-name="椭圆 39" cx="14.5" cy="14.5" r="14.5" transform="translate(4150 1598)" fill="#bbd2e6"/>
      <circle id="椭圆_40" data-name="椭圆 40" cx="14.5" cy="14.5" r="14.5" transform="translate(4242 1598)" fill="#bbd2e6"/>
      <circle id="椭圆_41" data-name="椭圆 41" cx="14.5" cy="14.5" r="14.5" transform="translate(4334 1598)" fill="#bbd2e6"/>
      <circle id="椭圆_42" data-name="椭圆 42" cx="14.5" cy="14.5" r="14.5" transform="translate(4426 1598)" fill="#bbd2e6"/>
      <circle id="椭圆_43" data-name="椭圆 43" cx="14.5" cy="14.5" r="14.5" transform="translate(3966 1663)" fill="#bbd2e6"/>
      <circle id="椭圆_44" data-name="椭圆 44" cx="14.5" cy="14.5" r="14.5" transform="translate(4058 1663)" fill="#bbd2e6"/>
      <circle id="椭圆_45" data-name="椭圆 45" cx="14.5" cy="14.5" r="14.5" transform="translate(4150 1663)" fill="#bbd2e6"/>
      <circle id="椭圆_46" data-name="椭圆 46" cx="14.5" cy="14.5" r="14.5" transform="translate(4242 1663)" fill="#bbd2e6"/>
      <circle id="椭圆_47" data-name="椭圆 47" cx="14.5" cy="14.5" r="14.5" transform="translate(4334 1663)" fill="#bbd2e6"/>
      <circle id="椭圆_48" data-name="椭圆 48" cx="14.5" cy="14.5" r="14.5" transform="translate(4426 1663)" fill="#bbd2e6"/>
      <circle id="椭圆_49" data-name="椭圆 49" cx="14.5" cy="14.5" r="14.5" transform="translate(3966 1728)" fill="#bbd2e6"/>
      <circle id="椭圆_50" data-name="椭圆 50" cx="14.5" cy="14.5" r="14.5" transform="translate(4058 1728)" fill="#bbd2e6"/>
      <circle id="椭圆_51" data-name="椭圆 51" cx="14.5" cy="14.5" r="14.5" transform="translate(4150 1728)" fill="#bbd2e6"/>
      <circle id="椭圆_52" data-name="椭圆 52" cx="14.5" cy="14.5" r="14.5" transform="translate(4242 1728)" fill="#bbd2e6"/>
      <circle id="椭圆_53" data-name="椭圆 53" cx="14.5" cy="14.5" r="14.5" transform="translate(4334 1728)" fill="#bbd2e6"/>
      <circle id="椭圆_54" data-name="椭圆 54" cx="14.5" cy="14.5" r="14.5" transform="translate(4426 1728)" fill="#bbd2e6"/>
    </g>
    <g id="组_14" data-name="组 14" transform="translate(-2620 -634)">
      <circle id="椭圆_19-2" data-name="椭圆 19" cx="14.5" cy="14.5" r="14.5" transform="translate(3967 1403)" fill="#b2a28b"/>
      <circle id="椭圆_20-2" data-name="椭圆 20" cx="14.5" cy="14.5" r="14.5" transform="translate(4059 1403)" fill="#b2a28b"/>
      <circle id="椭圆_21-2" data-name="椭圆 21" cx="14.5" cy="14.5" r="14.5" transform="translate(4151 1403)" fill="#b2a28b"/>
      <circle id="椭圆_22-2" data-name="椭圆 22" cx="14.5" cy="14.5" r="14.5" transform="translate(4243 1403)" fill="#b2a28b"/>
      <circle id="椭圆_23-2" data-name="椭圆 23" cx="14.5" cy="14.5" r="14.5" transform="translate(4335 1403)" fill="#b2a28b"/>
      <circle id="椭圆_24-2" data-name="椭圆 24" cx="14.5" cy="14.5" r="14.5" transform="translate(4427 1403)" fill="#b2a28b"/>
      <circle id="椭圆_25-2" data-name="椭圆 25" cx="14.5" cy="14.5" r="14.5" transform="translate(3967 1468)" fill="#b2a28b"/>
      <circle id="椭圆_26-2" data-name="椭圆 26" cx="14.5" cy="14.5" r="14.5" transform="translate(4059 1468)" fill="#b2a28b"/>
      <circle id="椭圆_27-2" data-name="椭圆 27" cx="14.5" cy="14.5" r="14.5" transform="translate(4151 1468)" fill="#b2a28b"/>
      <circle id="椭圆_28-2" data-name="椭圆 28" cx="14.5" cy="14.5" r="14.5" transform="translate(4243 1468)" fill="#b2a28b"/>
      <circle id="椭圆_29-2" data-name="椭圆 29" cx="14.5" cy="14.5" r="14.5" transform="translate(4335 1468)" fill="#b2a28b"/>
      <circle id="椭圆_30-2" data-name="椭圆 30" cx="14.5" cy="14.5" r="14.5" transform="translate(4427 1468)" fill="#b2a28b"/>
      <circle id="椭圆_31-2" data-name="椭圆 31" cx="14.5" cy="14.5" r="14.5" transform="translate(3967 1533)" fill="#b2a28b"/>
      <circle id="椭圆_32-2" data-name="椭圆 32" cx="14.5" cy="14.5" r="14.5" transform="translate(4059 1533)" fill="#b2a28b"/>
      <circle id="椭圆_33-2" data-name="椭圆 33" cx="14.5" cy="14.5" r="14.5" transform="translate(4151 1533)" fill="#b2a28b"/>
      <circle id="椭圆_34-2" data-name="椭圆 34" cx="14.5" cy="14.5" r="14.5" transform="translate(4243 1533)" fill="#b2a28b"/>
      <circle id="椭圆_35-2" data-name="椭圆 35" cx="14.5" cy="14.5" r="14.5" transform="translate(4335 1533)" fill="#b2a28b"/>
      <circle id="椭圆_36-2" data-name="椭圆 36" cx="14.5" cy="14.5" r="14.5" transform="translate(4427 1533)" fill="#b2a28b"/>
      <circle id="椭圆_37-2" data-name="椭圆 37" cx="14.5" cy="14.5" r="14.5" transform="translate(3966 1598)" fill="#b2a28b"/>
      <circle id="椭圆_38-2" data-name="椭圆 38" cx="14.5" cy="14.5" r="14.5" transform="translate(4058 1598)" fill="#b2a28b"/>
      <circle id="椭圆_39-2" data-name="椭圆 39" cx="14.5" cy="14.5" r="14.5" transform="translate(4150 1598)" fill="#b2a28b"/>
      <circle id="椭圆_40-2" data-name="椭圆 40" cx="14.5" cy="14.5" r="14.5" transform="translate(4242 1598)" fill="#b2a28b"/>
      <circle id="椭圆_41-2" data-name="椭圆 41" cx="14.5" cy="14.5" r="14.5" transform="translate(4334 1598)" fill="#b2a28b"/>
      <circle id="椭圆_42-2" data-name="椭圆 42" cx="14.5" cy="14.5" r="14.5" transform="translate(4426 1598)" fill="#b2a28b"/>
      <circle id="椭圆_43-2" data-name="椭圆 43" cx="14.5" cy="14.5" r="14.5" transform="translate(3966 1663)" fill="#b2a28b"/>
      <circle id="椭圆_44-2" data-name="椭圆 44" cx="14.5" cy="14.5" r="14.5" transform="translate(4058 1663)" fill="#b2a28b"/>
      <circle id="椭圆_45-2" data-name="椭圆 45" cx="14.5" cy="14.5" r="14.5" transform="translate(4150 1663)" fill="#b2a28b"/>
      <circle id="椭圆_46-2" data-name="椭圆 46" cx="14.5" cy="14.5" r="14.5" transform="translate(4242 1663)" fill="#b2a28b"/>
      <circle id="椭圆_47-2" data-name="椭圆 47" cx="14.5" cy="14.5" r="14.5" transform="translate(4334 1663)" fill="#b2a28b"/>
      <circle id="椭圆_48-2" data-name="椭圆 48" cx="14.5" cy="14.5" r="14.5" transform="translate(4426 1663)" fill="#b2a28b"/>
      <circle id="椭圆_49-2" data-name="椭圆 49" cx="14.5" cy="14.5" r="14.5" transform="translate(3966 1728)" fill="#b2a28b"/>
      <circle id="椭圆_50-2" data-name="椭圆 50" cx="14.5" cy="14.5" r="14.5" transform="translate(4058 1728)" fill="#b2a28b"/>
      <circle id="椭圆_51-2" data-name="椭圆 51" cx="14.5" cy="14.5" r="14.5" transform="translate(4150 1728)" fill="#b2a28b"/>
      <circle id="椭圆_52-2" data-name="椭圆 52" cx="14.5" cy="14.5" r="14.5" transform="translate(4242 1728)" fill="#b2a28b"/>
      <circle id="椭圆_53-2" data-name="椭圆 53" cx="14.5" cy="14.5" r="14.5" transform="translate(4334 1728)" fill="#b2a28b"/>
      <circle id="椭圆_54-2" data-name="椭圆 54" cx="14.5" cy="14.5" r="14.5" transform="translate(4426 1728)" fill="#b2a28b"/>
    </g>
    <g id="矩形_29" data-name="矩形 29" transform="translate(1634 261) rotate(90)" fill="none" stroke="#9ed5cf" stroke-width="2">
      <rect width="604" height="612" rx="302" stroke="none"/>
      <rect x="1" y="1" width="602" height="610" rx="301" fill="none"/>
    </g>
    <ellipse id="椭圆_8" data-name="椭圆 8" cx="245" cy="243.5" rx="245" ry="243.5" transform="translate(-232 727)" fill="#c7b4d9"/>
    <ellipse id="椭圆_7" data-name="椭圆 7" cx="303" cy="301" rx="303" ry="301" transform="translate(102 506)" fill="#b3cde3" opacity="0.888"/>
    <rect id="矩形_28" data-name="矩形 28" width="536" height="526" rx="261" transform="translate(1591 259) rotate(90)" fill="#d5f2a6"/>
    <ellipse id="椭圆_6" data-name="椭圆 6" cx="245" cy="243.5" rx="245" ry="243.5" transform="translate(366 858)" fill="#ffb9b9"/>
    <ellipse id="椭圆_9" data-name="椭圆 9" cx="303" cy="301" rx="303" ry="301" transform="translate(1504 598)" fill="#e3cfb3" opacity="0.805"/>
  </g>
</svg>
