<svg xmlns="http://www.w3.org/2000/svg" width="268.308" height="127.885" viewBox="0 0 268.308 127.885">
  <g id="组_1" data-name="组 1" transform="translate(-870.041 -22.849)">
    <path id="路径_1" data-name="路径 1" d="M316,230.15C227.54,184.66,163.45,300.8,242.28,296s61.24-3.87,61.24-3.87c26.66,31.94-76,32.91-76,32.91" transform="translate(667.439 -181.625)" fill="none" stroke="#000" stroke-miterlimit="10" stroke-width="8"/>
    <path id="路径_2" data-name="路径 2" d="M304.5,290.5l49-5.17C333.5,205.18,304.5,290.5,304.5,290.5Z" transform="translate(664.439 -183.958)" fill="none" stroke="#000" stroke-miterlimit="10" stroke-width="8"/>
    <line id="直线_2" data-name="直线 2" x1="34" y1="42" transform="translate(968.939 101.87)" fill="none" stroke="#000" stroke-miterlimit="10" stroke-width="8"/>
    <path id="路径_3" data-name="路径 3" d="M330.48,287.67,373,283C355.65,210.62,330.48,287.67,330.48,287.67Z" transform="translate(664.439 -183.816)" fill="none" stroke="#000" stroke-miterlimit="10" stroke-width="8"/>
    <line id="直线_3" data-name="直线 3" x1="29.5" y1="37.92" transform="translate(995.919 98.05)" fill="none" stroke="#000" stroke-miterlimit="10" stroke-width="8"/>
    <path id="路径_4" data-name="路径 4" d="M143.38,9.807l50.98,57.8L206.88.67,183.3,127.086" transform="translate(867.289 22.914)" fill="none" stroke="#000" stroke-miterlimit="10" stroke-width="8"/>
    <ellipse id="椭圆_1" data-name="椭圆 1" cx="18" cy="22.5" rx="18" ry="22.5" transform="translate(1073.939 80.208)" fill="none" stroke="#000" stroke-miterlimit="10" stroke-width="8"/>
    <path id="路径_5" data-name="路径 5" d="M442.62,275c-4.23,35.35,26.29,17.73,26.29,17.73" transform="translate(667.439 -177.496)" fill="none" stroke="#000" stroke-miterlimit="10" stroke-width="8"/>
  </g>
</svg>
